<?xml version="1.0" encoding="UTF-8"?>
<svg xmlns="http://www.w3.org/2000/svg" viewBox="0 0 121.71 31.5" fill="#fa3719">
  <path d="M4.47,1.31v24.3h8.71v4H0V1.31h4.47Z"/>
  <path d="M19.13,15.38c-.03-3.92,1.64-7.67,4.58-10.27,2.95-2.83,6.91-4.38,11-4.3,4.05-.06,7.96,1.5,10.86,4.33,2.93,2.66,4.59,6.44,4.55,10.4.06,3.96-1.61,7.74-4.57,10.37-2.99,2.82-6.96,4.36-11.07,4.27-3.77.02-7.43-1.33-10.29-3.79-3.31-2.68-5.18-6.75-5.06-11.01ZM23.64,15.43c-.09,2.94,1.12,5.76,3.3,7.73,4.36,4.05,11.11,4.03,15.44-.06,4.19-4.13,4.25-10.88.11-15.08-.04-.04-.08-.08-.11-.11-2.07-2.04-4.88-3.15-7.79-3.08-2.91-.07-5.73,1.04-7.81,3.08-2.07,1.95-3.21,4.68-3.14,7.52Z"/>
  <path d="M60.3,1.31l7.7,19L76,0l7.77,20.31L92,1.31h4.86l-13.28,30.16-7.58-20.07-8,20.08L55.44,1.31h4.86Z"/>
  <path d="M120.9,5.57l-3.63,2c-.45-.88-1.12-1.64-1.94-2.2-.75-.42-1.61-.62-2.47-.59-1.12-.04-2.21.31-3.09,1-.79.59-1.24,1.52-1.23,2.5,0,1.38,1.08,2.49,3.23,3.33l3,1.16c2.01.67,3.83,1.84,5.27,3.4,1.13,1.39,1.73,3.14,1.67,4.93.07,2.44-.92,4.8-2.72,6.45-1.84,1.72-4.29,2.65-6.81,2.57-2.32.09-4.59-.69-6.37-2.18-1.73-1.61-2.83-3.8-3.09-6.15l4.53-1c.06,1.22.43,2.41,1.08,3.45.95,1.23,2.45,1.92,4,1.83,1.29.04,2.54-.44,3.47-1.33,1.27-1.29,1.71-3.19,1.15-4.91-.17-.47-.42-.9-.75-1.27-.39-.42-.83-.78-1.32-1.08-.6-.39-1.24-.73-1.91-1l-2.86-1.14c-4.07-1.54-6.11-3.88-6.11-7.03-.02-2.08.92-4.05,2.55-5.34,1.78-1.47,4.04-2.24,6.35-2.16,3.35-.04,6.44,1.8,8,4.76Z"/>
</svg>
